<?xml version="1.0" standalone="no"?>
<!DOCTYPE svg PUBLIC "-//W3C//DTD SVG 20010904//EN"
 "http://www.w3.org/TR/2001/REC-SVG-20010904/DTD/svg10.dtd">
<svg version="1.0" xmlns="http://www.w3.org/2000/svg"
 width="1080.000000pt" height="1080.000000pt" viewBox="0 0 1080.000000 1080.000000"
 preserveAspectRatio="xMidYMid meet">
<metadata>
Created by potrace 1.14, written by Peter Selinger 2001-2017
</metadata>
<g transform="translate(0.000000,1080.000000) scale(0.100000,-0.100000)"
fill="#000000" stroke="none">
<path d="M5206 10455 c-222 -127 -213 -108 -91 -186 133 -87 110 -83 203 -28
l82 48 99 -58 c54 -33 123 -72 153 -89 29 -16 121 -69 203 -117 83 -48 168
-97 190 -109 22 -13 128 -74 235 -136 107 -62 213 -123 235 -136 22 -12 81
-46 130 -75 80 -46 224 -129 311 -179 17 -10 206 -119 420 -243 214 -123 414
-239 444 -256 30 -17 62 -35 70 -41 8 -5 60 -34 115 -66 113 -65 464 -267
1090 -629 237 -137 439 -254 450 -260 17 -9 70 -42 84 -52 2 -2 5 -455 5
-1007 1 -905 3 -1006 17 -1022 14 -17 220 -266 223 -271 1 -1 1 548 1 1220 l0
1222 -90 53 c-50 29 -101 58 -115 64 -14 7 -47 27 -75 44 -27 17 -70 42 -95
56 -93 51 -926 532 -960 553 -30 19 -549 319 -680 393 -25 14 -124 71 -220
127 -96 56 -195 113 -220 127 -25 14 -157 90 -295 170 -137 80 -270 156 -295
170 -25 14 -202 117 -395 228 -192 112 -366 212 -385 222 -19 11 -93 54 -165
96 -71 41 -148 85 -170 98 -22 12 -102 58 -177 102 l-137 80 -195 -113z"/>
<path d="M3531 10533 c-141 -15 -157 -17 -256 -38 -263 -54 -564 -170 -770
-295 -27 -16 -57 -33 -65 -37 -30 -14 -217 -148 -275 -197 -221 -187 -411
-427 -527 -666 -46 -94 -96 -217 -104 -254 -2 -11 -10 -40 -19 -65 -29 -92
-49 -235 -48 -366 0 -158 8 -215 44 -340 43 -149 118 -273 235 -389 343 -340
825 -281 1175 144 65 79 101 137 195 310 68 126 148 365 178 535 3 17 8 41 12
55 9 38 16 315 7 307 -4 -4 -8 -18 -10 -30 -9 -60 -69 -226 -114 -319 -150
-301 -408 -601 -599 -698 -111 -55 -243 -79 -316 -57 -48 15 -104 73 -139 144
-53 109 -35 282 48 463 70 152 196 312 352 446 114 98 324 225 470 285 11 4
41 17 66 27 108 46 313 96 449 110 80 8 289 8 350 0 299 -43 539 -159 746
-363 128 -127 207 -249 277 -435 52 -136 95 -303 113 -445 3 -22 8 -51 11 -65
9 -43 12 -443 3 -490 -4 -25 -10 -70 -14 -100 -14 -129 -43 -242 -87 -337 -10
-24 -19 -45 -19 -48 0 -10 -66 -112 -106 -165 -149 -194 -309 -288 -490 -288
-38 0 -89 7 -114 15 -25 7 -53 16 -64 18 -24 6 -96 62 -129 100 -141 168 -151
436 -20 544 21 17 43 31 50 31 7 0 13 4 13 9 0 9 -59 0 -95 -14 -47 -19 -103
-66 -137 -117 -21 -30 -38 -59 -38 -64 0 -5 -9 -26 -20 -47 -11 -20 -18 -37
-16 -37 2 0 -2 -24 -10 -52 -30 -111 -13 -298 40 -427 50 -123 163 -256 277
-325 57 -34 193 -90 245 -101 320 -65 618 -6 914 180 135 85 331 275 435 421
127 179 255 520 280 749 4 33 9 63 11 66 17 30 25 463 11 619 -20 224 -94 557
-156 705 -5 11 -25 61 -46 110 -104 253 -228 441 -422 641 -316 325 -754 552
-1197 620 -21 3 -46 7 -56 9 -105 20 -374 24 -529 8z"/>
<path d="M4129 8986 c-2 -2 -25 -6 -50 -9 -308 -37 -609 -275 -881 -697 -124
-192 -240 -397 -322 -564 -47 -98 -86 -179 -86 -181 0 -3 -11 -28 -24 -57 -84
-184 -149 -386 -271 -838 -161 -596 -240 -824 -403 -1160 -154 -320 -304 -508
-512 -644 -141 -93 -206 -118 -317 -124 -86 -4 -93 -3 -94 14 -1 27 -1 3086 0
3105 1 9 57 47 137 93 74 43 133 84 131 90 -2 6 -21 57 -42 113 -29 80 -41
100 -53 95 -9 -3 -76 -41 -150 -84 -74 -43 -136 -78 -137 -78 -7 0 -120 -71
-124 -79 -4 -5 -6 -723 -6 -1595 0 -872 -3 -1586 -7 -1586 -18 0 -118 112
-142 158 -14 29 -28 52 -30 52 -4 0 1 -67 8 -130 9 -73 58 -170 125 -249 l46
-55 0 -880 0 -880 85 -49 c47 -28 132 -77 190 -110 58 -33 119 -68 135 -78 17
-11 37 -22 45 -26 8 -4 75 -43 150 -87 74 -43 151 -88 170 -98 19 -10 50 -27
68 -38 18 -11 108 -64 200 -117 446 -257 811 -468 848 -489 23 -13 182 -105
355 -205 173 -99 377 -217 454 -261 77 -44 152 -89 167 -99 15 -11 30 -19 33
-19 3 0 22 -11 43 -23 20 -13 69 -41 107 -62 39 -21 77 -44 86 -51 8 -8 18
-14 22 -14 3 0 86 -47 184 -103 98 -57 345 -200 548 -317 204 -117 418 -241
477 -276 l106 -62 179 102 c98 57 239 138 313 181 74 43 146 85 160 92 14 8
48 27 75 44 28 16 76 43 108 61 l57 33 0 137 c0 76 -2 138 -5 138 -2 0 -63
-34 -134 -75 -71 -41 -145 -83 -163 -94 -149 -85 -502 -289 -540 -312 l-47
-28 -137 79 c-75 44 -138 80 -140 80 -2 0 -28 16 -58 35 -30 19 -57 35 -60 35
-5 0 -112 62 -156 90 -8 5 -28 17 -45 26 -16 9 -205 118 -419 241 -214 124
-403 233 -420 242 -17 10 -143 83 -281 163 -587 339 -842 487 -875 505 -19 11
-80 46 -135 78 -55 32 -199 115 -320 185 -121 70 -278 161 -350 202 -272 158
-522 302 -565 326 -25 14 -57 33 -72 43 -14 11 -28 19 -31 19 -5 0 -158 88
-166 96 -7 7 -5 1444 3 1445 3 0 31 -9 60 -20 79 -29 193 -48 277 -46 78 3
210 14 219 20 3 2 26 6 50 10 119 17 327 91 460 162 77 41 258 160 286 187 6
6 35 31 64 56 170 144 441 510 556 752 14 29 29 60 34 68 12 19 100 210 100
217 0 3 13 33 29 67 94 205 288 821 326 1038 4 18 10 51 15 73 10 47 50 329
56 400 3 28 9 88 15 135 5 47 12 112 14 145 6 81 15 175 20 205 2 14 7 54 10
90 4 36 8 67 10 70 1 3 6 32 9 65 4 33 9 67 11 75 2 8 7 31 10 50 5 29 22 110
40 194 32 145 122 306 230 410 58 56 182 146 202 146 7 0 13 5 13 10 0 9 -151
15 -161 6z"/>
<path d="M6508 6572 c-14 -3 -16 -27 -17 -200 0 -108 0 -205 0 -214 -1 -14
-14 -16 -100 -16 -54 1 -102 -2 -107 -5 -6 -3 -9 -97 -9 -216 l1 -211 -108 0
-108 0 2 -217 3 -218 323 0 322 0 0 -107 0 -107 -107 -3 -108 -3 -2 -2162 -2
-2163 215 0 c183 0 214 -2 215 -15 0 -8 2 -57 2 -107 l2 -93 205 -1 c113 -1
210 -2 216 -3 7 -1 10 -35 10 -98 -1 -54 0 -102 1 -108 3 -8 224 -11 406 -6
l27 1 0 1080 0 1080 217 2 218 3 0 105 1 105 199 2 c110 0 208 2 217 2 15 1
18 15 20 108 l3 107 213 0 212 0 0 108 0 108 109 0 109 0 0 58 c0 31 0 80 1
109 l1 51 98 -1 c54 0 103 2 108 5 5 4 9 52 9 107 l-1 101 108 0 108 0 2 218
3 217 95 1 c52 0 100 1 106 2 8 2 11 150 11 542 l0 540 -108 0 -109 0 0 215 0
215 -82 1 c-149 2 -133 -12 -133 109 l0 105 -109 5 -109 5 1 90 c0 50 -2 97
-4 106 -4 13 -32 15 -218 15 l-213 -1 -2 104 c0 57 -3 106 -5 109 -3 2 -100 5
-216 5 l-210 0 1 81 c0 45 0 93 0 107 l-1 25 -322 0 -323 0 -5 109 -5 108
-631 1 c-347 1 -638 0 -646 -2z m1717 -1622 l0 -105 190 -2 c105 -1 202 -2
218 -2 l27 -1 0 -325 0 -325 -109 0 -109 0 1 -98 c0 -54 -2 -102 -5 -108 -4
-6 -91 -9 -217 -9 l-211 0 0 -110 0 -110 -90 2 c-49 1 -99 2 -110 2 -20 1 -20
8 -20 541 l0 540 -37 1 c-21 0 -70 0 -109 0 l-71 0 0 102 c0 56 1 105 4 109 2
4 149 7 326 5 l322 -2 0 -105z"/>
<path d="M3708 5128 c-345 -199 -626 -363 -624 -365 1 -2 203 44 447 102 244
58 512 122 594 141 83 19 167 39 188 45 l37 10 0 214 c0 118 -3 215 -8 215 -4
0 -290 -163 -634 -362z"/>
<path d="M4435 5279 c0 -177 3 -213 15 -220 8 -5 132 -36 275 -69 143 -34 296
-70 340 -80 517 -124 629 -149 632 -146 2 2 -65 43 -149 91 -84 49 -193 112
-243 141 -162 94 -589 340 -635 366 -25 14 -85 48 -133 77 -49 28 -92 51 -95
51 -4 0 -7 -95 -7 -211z"/>
<path d="M3575 4786 c-396 -94 -726 -175 -733 -179 -7 -5 -10 -12 -7 -16 2 -5
30 -91 61 -192 31 -101 109 -357 174 -569 65 -212 137 -448 161 -525 23 -77
45 -144 49 -148 4 -4 93 144 197 330 631 1121 608 1080 720 1283 14 25 43 76
65 113 22 38 38 70 36 71 -1 2 -327 -74 -723 -168z"/>
<path d="M4509 4907 c44 -79 381 -680 441 -787 63 -111 115 -205 155 -275 57
-100 338 -601 364 -647 14 -27 28 -48 31 -48 3 0 39 109 79 243 41 133 141
460 222 726 82 267 147 486 145 489 -3 2 -105 28 -228 57 -492 116 -879 208
-998 236 -69 17 -151 36 -183 44 l-58 13 30 -51z"/>
<path d="M4372 4898 c-16 -27 -347 -613 -444 -788 -14 -25 -149 -266 -302
-537 -152 -270 -276 -494 -276 -497 0 -3 468 -6 1040 -6 572 0 1040 4 1040 8
0 5 -66 125 -146 268 -80 142 -158 282 -173 309 -16 28 -98 174 -183 325 -85
151 -170 302 -188 335 -18 33 -36 65 -40 70 -4 6 -21 35 -37 65 -31 57 -202
362 -246 438 l-24 43 -21 -33z m384 -1195 l1 -391 -24 -5 c-16 -3 -27 2 -34
14 -5 10 -13 18 -17 18 -23 -4 -42 3 -42 15 0 7 -8 13 -17 13 -10 0 -23 1 -30
2 -9 1 -12 61 -12 244 1 214 -1 242 -15 245 -10 2 -16 -3 -16 -14 0 -10 -3
-15 -6 -11 -4 3 -15 -4 -25 -16 -22 -26 -22 -27 -23 95 -1 87 0 97 17 102 11
2 16 9 13 14 -3 5 4 12 15 15 12 3 18 10 14 16 -3 6 0 11 8 11 8 0 17 6 20 14
4 10 26 13 89 12 l83 -1 1 -392z m-406 352 c0 -10 10 -15 30 -15 22 0 28 -4
24 -15 -4 -10 0 -15 13 -15 17 0 18 -9 18 -102 -1 -75 -4 -102 -13 -101 -7 2
-12 -3 -13 -10 -1 -6 -2 -21 -3 -32 0 -11 -8 -20 -16 -20 -8 -1 -14 -7 -12
-14 4 -21 -8 -52 -19 -46 -5 4 -9 -1 -9 -9 0 -9 -7 -16 -15 -16 -8 0 -15 -7
-15 -15 0 -8 -7 -15 -15 -15 -8 0 -15 -7 -15 -15 0 -8 -7 -15 -15 -15 -8 0
-15 -7 -15 -15 0 -8 -7 -15 -15 -15 -8 0 -15 -7 -15 -15 0 -8 -7 -15 -15 -15
-8 0 -15 -7 -15 -15 0 -12 20 -15 118 -15 l117 0 1 -70 c0 -38 -3 -71 -6 -71
-13 -3 -386 -5 -395 -2 -17 5 -11 193 6 203 7 5 14 15 15 22 3 33 5 38 20 38
8 0 12 5 9 11 -4 6 2 13 14 16 11 3 18 9 15 14 -3 5 2 12 10 15 9 3 16 13 16
21 0 8 4 12 9 9 5 -3 21 10 36 29 16 19 32 32 37 29 4 -3 8 9 8 25 0 21 5 31
15 31 10 0 15 10 15 30 0 27 -3 30 -30 30 -29 0 -30 -2 -30 -43 l0 -43 -86 0
-87 1 -2 64 c-1 46 3 68 14 79 9 9 16 24 16 35 0 11 8 23 18 26 10 4 17 11 15
16 -2 6 9 11 25 13 15 2 27 9 27 16 0 10 26 14 105 15 89 2 105 0 105 -14z"/>
<path d="M2821 3592 l-1 -743 199 101 199 100 -20 62 c-11 35 -41 135 -68 223
-121 398 -282 924 -295 960 -12 35 -14 -61 -14 -703z"/>
<path d="M5943 4283 c-6 -21 -54 -180 -107 -353 -275 -891 -269 -873 -251
-886 16 -12 370 -194 377 -194 5 0 2 1460 -4 1465 -3 3 -10 -11 -15 -32z"/>
<path d="M3385 2980 c-2 -3 24 -35 58 -71 187 -198 366 -387 392 -414 17 -18
95 -101 175 -185 80 -85 159 -168 175 -185 17 -18 70 -74 119 -125 l88 -93 60
64 c33 35 126 133 207 218 80 85 157 166 171 181 14 15 95 100 180 190 85 90
191 202 235 249 44 46 97 102 118 123 20 21 37 42 37 46 0 8 -2010 10 -2015 2z"/>
<path d="M3140 2913 c-58 -30 -143 -74 -189 -97 l-84 -42 176 -102 c96 -56
190 -110 208 -120 19 -10 207 -119 419 -242 212 -122 405 -233 430 -247 l45
-26 -46 49 c-25 27 -77 83 -116 124 -39 41 -91 96 -115 121 -23 25 -106 113
-184 195 -78 82 -159 168 -180 190 -194 207 -240 254 -249 253 -5 0 -57 -25
-115 -56z"/>
<path d="M5463 2912 c-55 -60 -77 -83 -314 -332 -80 -85 -161 -171 -179 -190
-17 -19 -64 -69 -104 -110 -203 -212 -229 -242 -206 -230 25 13 421 240 540
310 36 21 202 117 370 213 168 97 313 181 323 189 16 12 -2 23 -171 111 -104
53 -193 97 -198 97 -5 0 -33 -26 -61 -58z"/>
</g>
</svg>
